<svg xmlns="http://www.w3.org/2000/svg" width="200" height="200" viewBox="0 0 200 200" fill="none">
<path d="M1.66675 13.04L14.4201 158.753C15.4601 169.667 21.9934 179.307 31.7467 184.313C34.5601 185.76 37.6601 186.553 40.8267 186.64C58.7134 187.133 121.447 188.173 149.593 179.74C151.68 179.113 152.213 176.407 150.533 175.027L145.513 170.9C140.147 166.493 136.767 160.12 136.12 153.207L127.3 45.6733C126.6 38.16 124.247 30.84 120.08 24.5467C117.88 21.2133 115.313 18.2733 112.407 15.6933L1.66675 13.04Z" fill="#EEEEEE"/>
<path d="M54.6 90.8C54.3 90.8 53.9933 90.7067 53.7333 90.5133L30.56 73.5133C29.9067 73.0333 29.7667 72.12 30.2467 71.4667C30.7267 70.8133 31.64 70.6733 32.2933 71.1533L55.4667 88.1533C56.12 88.6333 56.26 89.5467 55.78 90.2C55.4933 90.5933 55.0533 90.8 54.6 90.8Z" fill="#414042"/>
<path d="M33.7599 93.2933C33.4266 93.2933 33.0933 93.18 32.8199 92.9467C32.1999 92.4267 32.1199 91.5 32.6399 90.8867L51.1466 68.9C51.6666 68.28 52.5933 68.2 53.2066 68.72C53.8266 69.24 53.9066 70.1667 53.3866 70.78L34.8799 92.7667C34.5933 93.12 34.1799 93.2933 33.7599 93.2933ZM108.473 85.76C108.14 85.76 107.8 85.6467 107.527 85.4133L85.5999 66.8333C84.9799 66.3133 84.9066 65.3867 85.4266 64.7667C85.9466 64.1533 86.8733 64.0733 87.4933 64.5933L109.42 83.1733C110.04 83.6933 110.113 84.62 109.593 85.24C109.307 85.5867 108.893 85.76 108.473 85.76Z" fill="#414042"/>
<path d="M87.5134 86.7933C87.1467 86.7933 86.7801 86.6533 86.4934 86.38C85.9134 85.82 85.9001 84.8933 86.4601 84.3067L106.46 63.6667C107.02 63.0867 107.947 63.0733 108.533 63.6333C109.113 64.1933 109.127 65.12 108.567 65.7067L88.5668 86.3467C88.2801 86.64 87.8934 86.7933 87.5134 86.7933Z" fill="#414042"/>
<path d="M40.9932 132.673C40.4199 132.673 39.8799 132.34 39.6466 131.78C39.3332 131.033 39.6799 130.173 40.4266 129.86L46.0866 127.473L47.9399 121.233C48.1266 120.613 48.6932 120.187 49.3466 120.187H55.8666L59.9799 115.18C60.3466 114.733 60.9466 114.547 61.5066 114.7L67.2932 116.313L72.2399 112.18C72.7132 111.78 73.3866 111.727 73.9199 112.04L79.4199 115.273L85.7732 113.2C86.3332 113.013 86.9532 113.187 87.3399 113.64L91.4332 118.413L97.7066 118.14C98.3132 118.107 98.8866 118.473 99.1199 119.04L101.573 124.907L108.7 126.847C109.48 127.06 109.94 127.86 109.727 128.647C109.513 129.427 108.707 129.887 107.927 129.673L100.107 127.547C99.6732 127.427 99.3132 127.113 99.1399 126.7L96.7999 121.113L90.8399 121.373C90.3932 121.393 89.9599 121.207 89.6666 120.867L85.7466 116.293L79.6932 118.267C79.2932 118.4 78.8599 118.347 78.4999 118.14L73.3199 115.093L68.5732 119.06C68.2066 119.367 67.7066 119.473 67.2399 119.347L61.6332 117.78L57.6866 122.58C57.4066 122.92 56.9932 123.113 56.5532 123.113H50.4332L48.6932 128.973C48.5666 129.393 48.2599 129.733 47.8599 129.907L41.5599 132.56C41.3732 132.633 41.1799 132.673 40.9932 132.673Z" fill="#414042"/>
<path d="M174.187 76.6067C176.04 79.7733 177.727 79.46 179.24 75.86L179.347 72.2133L174.5 72.5267L174.187 76.6067Z" fill="#F7C19B"/>
<path d="M170.867 66.74C170.867 66.74 170.033 71.86 172.087 74.34C173.153 75.62 175.027 75.8666 176.413 74.9533C177.48 74.2533 179.007 73.0066 180.033 71.1C180.12 70.9333 179.013 66.6333 179.013 66.6333L177.713 65.3333L173.653 65.5L170.867 66.74Z" fill="#F7C19B"/>
<path d="M175.754 69.9733L176.054 68.1733C176.054 68.1733 175.567 68.4667 174.954 68.6733C174.06 68.98 173.087 68.4867 172.78 67.5933L172.707 67.3733C172.707 67.3733 168.854 67.8533 169.42 64.3267C169.56 63.4333 170.227 62.7067 171.113 62.5133C171.9 62.34 173.06 62.3533 174.747 62.9C175.38 63.1 176.067 62.9133 176.64 62.5733C177.26 62.2067 178.287 62.0533 179.32 63.9C179.5 64.22 179.727 64.5133 180 64.7533C180.767 65.4333 182.534 68.84 179.354 73.1467C179.214 73.3333 178.92 73.2267 178.94 72.9933C179.047 71.5733 179.087 68.7133 177.693 68.9333C177.36 68.9867 177.074 69.2133 176.92 69.5133L176.54 70.24C176.434 70.44 176.194 70.52 175.987 70.4267C175.814 70.3467 175.72 70.16 175.754 69.9733Z" fill="#333333"/>
<path d="M147.893 89.9667L146.373 88.96C146.133 88.8 145.967 88.5467 145.92 88.26L145.707 87.0267C145.667 86.7933 145.447 86.6333 145.213 86.6667C145.02 86.6933 144.873 86.8467 144.847 87.04L144.707 88.1466C144.667 88.44 144.38 88.6333 144.093 88.56L141.207 87.7933C140.98 87.7333 140.747 87.8667 140.68 88.0867C140.613 88.3067 140.733 88.54 140.947 88.6133L142.527 89.18L140.74 88.5466C140.48 88.4533 140.2 88.6067 140.127 88.8667C140.06 89.1067 140.2 89.3533 140.433 89.4333L143.093 90.3L140.98 89.5933C140.733 89.5133 140.467 89.6467 140.387 89.8933C140.307 90.14 140.447 90.4 140.693 90.48L143.547 91.3667L141.387 90.6867C141.147 90.6133 140.887 90.74 140.807 90.98C140.727 91.2133 140.847 91.4667 141.073 91.56C142.78 92.26 144.74 92.7733 146.853 93.1867L147.893 89.9667Z" fill="#F7C19B"/>
<path d="M192.825 163.954L196.819 162.06L193.93 155.97L189.936 157.865L192.825 163.954Z" fill="#F7C19B"/>
<path d="M196.66 163.68L197.547 164.313L197.8 164.533C197.947 164.66 198.053 164.827 198.107 165.013L198.32 165.733C198.373 165.913 198.267 166.1 198.093 166.153L197.293 166.387L197.233 166.18L196.8 166.307L196.86 166.507L195.9 166.813L195.853 166.647L195.4 166.78L195.453 166.96L194.373 167.273L193.613 166.733C192.827 167.233 192.14 167.767 191.593 168.347C191.567 168.38 190.48 168.707 190.467 168.68L190.42 168.52L189.993 168.647L190.04 168.807C189.693 168.933 189.347 169.04 189 169.113L188.947 168.94L188.533 169.06L188.573 169.2C188.207 169.307 187.873 169.36 187.573 169.367L187.533 169.233L187.1 169.3L187.133 169.42C186.88 169.46 186.633 169.46 186.393 169.433L186.373 169.293L185.96 169.247L185.92 169.4C185.467 169.353 185.053 169.287 184.68 169.2C184.68 169.2 184.453 168.667 184.787 168.54L189.033 166.767L194.44 164.333L196.66 163.68Z" fill="#333333"/>
<path d="M197.36 163.04C197.44 163.307 197.493 163.587 197.513 163.873L197.547 164.313C195.847 164.78 194.313 165.367 193.013 166.14C192.747 166.3 192.487 166.467 192.233 166.64C190.1 168.16 187.607 168.753 184.787 168.54L184.673 168.147C184.587 167.853 184.72 167.54 184.987 167.4L186.753 166.467C187.067 166.3 187.387 166.14 187.707 165.98C188.6 165.527 189.36 164.893 190.013 164.107C190.047 164.067 190.087 164.02 190.12 163.973C190.14 163.947 190.16 163.92 190.18 163.893C190.353 164.287 190.893 164.68 190.927 164.7C190.94 164.713 190.967 164.713 190.98 164.707C190.987 164.7 191 164.693 191 164.687C191.02 164.66 191.013 164.627 190.987 164.607C190.793 164.467 190.353 164.1 190.253 163.787C190.267 163.767 190.28 163.747 190.3 163.727C190.607 163.54 191.193 163.507 191.447 163.513C191.48 163.513 191.5 163.493 191.5 163.46C191.5 163.427 191.473 163.407 191.447 163.407C191.413 163.407 190.84 163.393 190.427 163.547C190.48 163.473 190.527 163.4 190.573 163.327C190.607 163.28 190.633 163.233 190.667 163.187C190.733 163.087 190.793 162.98 190.86 162.873C190.887 162.833 190.913 162.787 190.933 162.747C191.02 162.587 191.113 162.427 191.193 162.26C191.467 162.2 191.86 162.287 192.027 162.34C192.053 162.347 192.087 162.333 192.093 162.307C192.1 162.28 192.087 162.247 192.06 162.24C192.033 162.233 191.607 162.107 191.253 162.147C191.287 162.08 191.32 162.013 191.353 161.947C191.407 161.833 191.5 161.747 191.62 161.707L195.947 160.26C196.107 160.207 196.273 160.3 196.32 160.46L196.453 160.98C196.553 161.367 196.713 161.733 196.92 162.073C197.113 162.373 197.26 162.7 197.36 163.04Z" fill="#58595B"/>
<path d="M191 164.687C190.994 164.693 190.987 164.7 190.98 164.707C190.96 164.713 190.94 164.713 190.927 164.7C190.9 164.68 190.354 164.293 190.18 163.893C190.207 163.86 190.234 163.827 190.26 163.793C190.36 164.107 190.8 164.473 190.994 164.613C191.014 164.627 191.02 164.66 191 164.687ZM191.5 163.467C191.5 163.5 191.474 163.52 191.447 163.52C191.194 163.513 190.607 163.547 190.3 163.733C190.347 163.673 190.387 163.613 190.434 163.553C190.847 163.4 191.42 163.413 191.454 163.413C191.48 163.407 191.5 163.433 191.5 163.467Z" fill="#231F20"/>
<path d="M192.1 162.307C192.093 162.333 192.06 162.353 192.033 162.34C191.867 162.287 191.473 162.207 191.2 162.26C191.22 162.22 191.24 162.18 191.26 162.14C191.613 162.1 192.04 162.227 192.067 162.233C192.093 162.247 192.107 162.28 192.1 162.307Z" fill="#303030"/>
<path d="M197.36 163.04C197.44 163.307 197.493 163.587 197.513 163.873L197.547 164.313C195.847 164.78 194.313 165.367 193.013 166.14L190.407 165.28C190.253 165.233 190.18 165.06 190.24 164.92L191.62 161.707L195.947 160.26C196.107 160.207 196.273 160.3 196.32 160.46L196.453 160.98C196.553 161.367 196.713 161.733 196.92 162.073C197.113 162.373 197.26 162.7 197.36 163.04Z" fill="#414042"/>
<path d="M191.761 161.881L191.72 161.861L191.734 161.82L191.774 161.807L191.794 161.854L191.774 161.861L191.761 161.881Z" fill="#58595B"/>
<path d="M197.36 164.113L197.313 164.12L197.307 164.053L197.353 164.047L197.36 164.113ZM197.347 163.98L197.3 163.987L197.293 163.92L197.34 163.913L197.347 163.98ZM197.34 163.847L197.293 163.853C197.293 163.833 197.287 163.807 197.287 163.787L197.333 163.78C197.333 163.8 197.34 163.827 197.34 163.847ZM197.327 163.713L197.28 163.72C197.28 163.7 197.273 163.673 197.273 163.653L197.32 163.647C197.32 163.673 197.32 163.693 197.327 163.713ZM197.307 163.587L197.26 163.593C197.26 163.573 197.253 163.553 197.247 163.527L197.293 163.52C197.3 163.54 197.307 163.56 197.307 163.587ZM197.287 163.453L197.24 163.46C197.233 163.44 197.233 163.42 197.227 163.393L197.273 163.38C197.28 163.407 197.28 163.433 197.287 163.453ZM197.26 163.32L197.213 163.333C197.207 163.313 197.207 163.293 197.2 163.267L197.247 163.253C197.247 163.28 197.253 163.3 197.26 163.32ZM197.227 163.193L197.18 163.207C197.173 163.187 197.167 163.167 197.16 163.147L197.207 163.133C197.213 163.153 197.22 163.173 197.227 163.193ZM197.147 163.08C197.14 163.06 197.133 163.04 197.127 163.02L197.173 163.007C197.18 163.027 197.187 163.047 197.193 163.067L197.147 163.08ZM197.107 162.953C197.1 162.933 197.093 162.913 197.087 162.893L197.133 162.88C197.14 162.9 197.147 162.92 197.153 162.94L197.107 162.953ZM197.06 162.833C197.053 162.813 197.047 162.793 197.033 162.773L197.08 162.753C197.087 162.773 197.093 162.793 197.107 162.813L197.06 162.833ZM197.013 162.713C197.007 162.693 196.993 162.673 196.987 162.653L197.033 162.633C197.04 162.653 197.053 162.673 197.06 162.693L197.013 162.713ZM196.96 162.593C196.953 162.573 196.94 162.553 196.933 162.533L196.98 162.513C196.987 162.533 197 162.553 197.007 162.573L196.96 162.593ZM196.907 162.473C196.9 162.453 196.887 162.433 196.88 162.413L196.927 162.393C196.94 162.413 196.947 162.433 196.96 162.453L196.907 162.473ZM196.847 162.353C196.833 162.333 196.827 162.313 196.813 162.293L196.853 162.267C196.867 162.287 196.873 162.307 196.887 162.327L196.847 162.353ZM196.78 162.24C196.767 162.22 196.76 162.2 196.747 162.187L196.787 162.16C196.8 162.18 196.807 162.2 196.82 162.22L196.78 162.24ZM196.713 162.127C196.7 162.107 196.693 162.087 196.68 162.067L196.72 162.04C196.733 162.06 196.74 162.08 196.753 162.093L196.713 162.127ZM196.647 162.013C196.633 161.993 196.627 161.973 196.613 161.953L196.653 161.933C196.667 161.953 196.673 161.973 196.687 161.993L196.647 162.013ZM196.58 161.9C196.567 161.88 196.56 161.86 196.553 161.84L196.6 161.82C196.607 161.84 196.62 161.86 196.627 161.88L196.58 161.9ZM196.52 161.78C196.513 161.76 196.5 161.74 196.493 161.72L196.54 161.7C196.547 161.72 196.56 161.74 196.567 161.76L196.52 161.78ZM196.467 161.66C196.46 161.64 196.447 161.62 196.44 161.6L196.487 161.58C196.493 161.6 196.507 161.62 196.513 161.64L196.467 161.66ZM196.42 161.533C196.413 161.513 196.407 161.493 196.393 161.473L196.44 161.453C196.447 161.473 196.453 161.493 196.467 161.513L196.42 161.533ZM196.367 161.413C196.36 161.393 196.353 161.373 196.347 161.353L196.393 161.34C196.4 161.36 196.407 161.38 196.413 161.4L196.367 161.413ZM196.327 161.287C196.32 161.267 196.313 161.247 196.307 161.227L196.353 161.213C196.36 161.233 196.367 161.253 196.373 161.273L196.327 161.287ZM196.333 161.147L196.287 161.16C196.28 161.14 196.273 161.12 196.267 161.093L196.313 161.08C196.32 161.107 196.327 161.127 196.333 161.147ZM196.3 161.02L196.253 161.033L196.233 160.967L196.28 160.953L196.3 161.02ZM196.267 160.893L196.22 160.907L196.207 160.84L196.253 160.827L196.267 160.893ZM196.233 160.767L196.187 160.78L196.173 160.713L196.22 160.7L196.233 160.767ZM196.2 160.633L196.153 160.647L196.14 160.58L196.187 160.567L196.2 160.633ZM191.853 161.827L191.84 161.78L191.9 161.76L191.913 161.807L191.853 161.827ZM191.98 161.787L191.967 161.74L192.027 161.72L192.04 161.767L191.98 161.787ZM192.107 161.747L192.093 161.7L192.153 161.68L192.167 161.727L192.107 161.747ZM192.233 161.707L192.22 161.66L192.28 161.64L192.293 161.687L192.233 161.707ZM192.353 161.66L192.34 161.613L192.4 161.593L192.413 161.64L192.353 161.66ZM192.48 161.62L192.467 161.573L192.527 161.553L192.54 161.6L192.48 161.62ZM192.607 161.58L192.593 161.533L192.653 161.513L192.667 161.56L192.607 161.58ZM192.733 161.533L192.72 161.487L192.78 161.467L192.793 161.513L192.733 161.533ZM192.853 161.493L192.84 161.447L192.9 161.427L192.913 161.473L192.853 161.493ZM192.987 161.453L192.967 161.407L193.027 161.387L193.04 161.433L192.987 161.453ZM196.12 160.527C196.113 160.507 196.1 160.493 196.087 160.48L196.12 160.44C196.14 160.46 196.153 160.48 196.167 160.5L196.12 160.527ZM193.107 161.413L193.093 161.367L193.153 161.347L193.167 161.393L193.107 161.413ZM193.233 161.367L193.22 161.32L193.28 161.3L193.293 161.347L193.233 161.367ZM193.36 161.327L193.34 161.28L193.4 161.26L193.413 161.307L193.36 161.327ZM193.487 161.28L193.467 161.233L193.527 161.213L193.54 161.26L193.487 161.28ZM193.613 161.24L193.593 161.193L193.653 161.173L193.667 161.22L193.613 161.24ZM193.733 161.2L193.72 161.153L193.78 161.133L193.793 161.18L193.733 161.2ZM193.86 161.16L193.847 161.113L193.907 161.093L193.92 161.14L193.86 161.16ZM193.98 161.12L193.967 161.073L194.027 161.053L194.04 161.1L193.98 161.12ZM194.107 161.073L194.093 161.027L194.153 161.007L194.167 161.053L194.107 161.073ZM194.233 161.033L194.22 160.987L194.28 160.967L194.293 161.013L194.233 161.033ZM194.36 160.993L194.347 160.947L194.407 160.927L194.42 160.973L194.36 160.993ZM194.487 160.947L194.473 160.9L194.533 160.88L194.547 160.927L194.487 160.947ZM194.607 160.907L194.593 160.86L194.653 160.84L194.667 160.887L194.607 160.907ZM194.733 160.867L194.72 160.82L194.78 160.8L194.793 160.847L194.733 160.867ZM194.86 160.827L194.847 160.78L194.907 160.76L194.92 160.807L194.86 160.827ZM194.987 160.78L194.973 160.733L195.033 160.713L195.047 160.76L194.987 160.78ZM195.107 160.74L195.093 160.693L195.153 160.673L195.167 160.72L195.107 160.74ZM195.233 160.7L195.22 160.653L195.28 160.633L195.293 160.68L195.233 160.7ZM195.36 160.653L195.347 160.607L195.407 160.587L195.42 160.633L195.36 160.653ZM196.04 160.453C196.02 160.447 196.007 160.447 195.987 160.447L195.98 160.4C196.007 160.4 196.033 160.4 196.053 160.407L196.04 160.453ZM195.487 160.613L195.473 160.567L195.533 160.547L195.547 160.593L195.487 160.613ZM195.613 160.573L195.6 160.527L195.66 160.507L195.673 160.553L195.613 160.573ZM195.733 160.527L195.72 160.48L195.78 160.46L195.793 160.507L195.733 160.527ZM195.86 160.487L195.847 160.44L195.907 160.42L195.92 160.467L195.86 160.487Z" fill="#58595B"/>
<path d="M197.368 164.221L197.314 164.234L197.3 164.187H197.314V164.173L197.361 164.167L197.368 164.221Z" fill="#58595B"/>
<path d="M193.107 165.92L193.08 165.88L193.133 165.847L193.16 165.887L193.107 165.92ZM193.22 165.86L193.193 165.82L193.253 165.787L193.28 165.827L193.22 165.86ZM193.333 165.793L193.307 165.753L193.367 165.72L193.387 165.76L193.333 165.793ZM193.447 165.733L193.427 165.687L193.487 165.653L193.507 165.7L193.447 165.733ZM193.56 165.673L193.54 165.627L193.6 165.593L193.62 165.64L193.56 165.673ZM193.673 165.613L193.653 165.567L193.713 165.54L193.733 165.587L193.673 165.613ZM193.793 165.553L193.773 165.507L193.833 165.48L193.853 165.527L193.793 165.553ZM193.907 165.5L193.887 165.453L193.947 165.427L193.967 165.473L193.907 165.5ZM194.027 165.44L194.007 165.393L194.067 165.367L194.087 165.413L194.027 165.44ZM194.14 165.387L194.12 165.34L194.18 165.313L194.2 165.36L194.14 165.387ZM194.26 165.333L194.24 165.287L194.3 165.26L194.32 165.307L194.26 165.333ZM194.38 165.28L194.36 165.233L194.42 165.207L194.44 165.253L194.38 165.28ZM194.5 165.227L194.48 165.18L194.54 165.153L194.56 165.2L194.5 165.227ZM194.613 165.173L194.593 165.127L194.653 165.1L194.673 165.147L194.613 165.173ZM194.733 165.12L194.713 165.073L194.773 165.047L194.793 165.093L194.733 165.12ZM194.853 165.073L194.833 165.027L194.893 165L194.913 165.047L194.853 165.073ZM194.973 165.02L194.953 164.973L195.013 164.947L195.033 164.993L194.973 165.02ZM195.1 164.973L195.08 164.927L195.14 164.9L195.16 164.947L195.1 164.973ZM195.22 164.927L195.2 164.88L195.26 164.853L195.28 164.9L195.22 164.927ZM195.34 164.88L195.32 164.833L195.38 164.813L195.4 164.86L195.34 164.88ZM195.46 164.833L195.44 164.787L195.5 164.767L195.52 164.813L195.46 164.833ZM195.58 164.793L195.56 164.747L195.62 164.727L195.64 164.773L195.58 164.793ZM195.707 164.747L195.693 164.7L195.753 164.68L195.767 164.727L195.707 164.747ZM195.827 164.7L195.813 164.653L195.873 164.633L195.887 164.68L195.827 164.7ZM195.953 164.66L195.94 164.613L196 164.593L196.013 164.64L195.953 164.66ZM196.073 164.62L196.06 164.573L196.12 164.553L196.133 164.6L196.073 164.62ZM196.193 164.58L196.18 164.533L196.24 164.513L196.253 164.56L196.193 164.58ZM196.32 164.533L196.307 164.487L196.367 164.467L196.38 164.513L196.32 164.533ZM196.447 164.5L196.433 164.453L196.493 164.433L196.507 164.48L196.447 164.5ZM196.567 164.46L196.553 164.413L196.613 164.393L196.627 164.44L196.567 164.46ZM196.693 164.42L196.68 164.373L196.74 164.353L196.753 164.4L196.693 164.42ZM197.253 164.253L197.193 164.273L197.18 164.227L197.24 164.207L197.253 164.253ZM196.813 164.38L196.8 164.333L196.86 164.313L196.873 164.36L196.813 164.38ZM197.127 164.287L197.067 164.307L197.053 164.26L197.113 164.24L197.127 164.287ZM196.94 164.347L196.927 164.3L196.987 164.28L197 164.327L196.94 164.347Z" fill="#58595B"/>
<path d="M193.014 165.981L192.967 165.968L192.987 165.92L193.007 165.927L193.028 165.913L193.048 165.954L193.014 165.981Z" fill="#58595B"/>
<path d="M192.907 165.947L192.847 165.927L192.86 165.88L192.92 165.9L192.907 165.947ZM192.787 165.9L192.727 165.88L192.74 165.833L192.8 165.853L192.787 165.9ZM192.66 165.86L192.6 165.84L192.613 165.793L192.673 165.813L192.66 165.86ZM192.54 165.82L192.48 165.8L192.493 165.753L192.553 165.773L192.54 165.82ZM192.413 165.78L192.353 165.76L192.367 165.713L192.427 165.733L192.413 165.78ZM192.287 165.74L192.227 165.72L192.24 165.673L192.3 165.693L192.287 165.74ZM192.167 165.7L192.107 165.68L192.12 165.633L192.18 165.653L192.167 165.7ZM192.04 165.66L191.98 165.64L191.993 165.593L192.053 165.613L192.04 165.66ZM191.92 165.62L191.86 165.6L191.873 165.553L191.933 165.573L191.92 165.62ZM191.793 165.58L191.733 165.56L191.747 165.513L191.807 165.533L191.793 165.58ZM191.673 165.54L191.613 165.52L191.627 165.473L191.687 165.493L191.673 165.54ZM191.547 165.493L191.487 165.473L191.5 165.427L191.56 165.447L191.547 165.493ZM191.427 165.453L191.367 165.433L191.38 165.387L191.44 165.407L191.427 165.453ZM191.3 165.413L191.24 165.393L191.253 165.347L191.313 165.367L191.3 165.413ZM191.18 165.373L191.12 165.353L191.133 165.307L191.193 165.327L191.18 165.373ZM191.053 165.333L190.993 165.313L191.007 165.267L191.067 165.287L191.053 165.333ZM190.933 165.293L190.873 165.273L190.887 165.227L190.947 165.247L190.933 165.293ZM190.807 165.253L190.747 165.233L190.76 165.187L190.82 165.207L190.807 165.253ZM190.687 165.213L190.627 165.193L190.64 165.147L190.7 165.167L190.687 165.213ZM190.56 165.173L190.5 165.153L190.513 165.107L190.573 165.127L190.56 165.173ZM190.433 165.113C190.42 165.1 190.407 165.08 190.4 165.067C190.4 165.06 190.393 165.06 190.393 165.053L190.44 165.04C190.44 165.047 190.44 165.047 190.447 165.053C190.453 165.067 190.46 165.08 190.473 165.087L190.433 165.113ZM190.433 164.98L190.387 164.973C190.387 164.96 190.393 164.947 190.4 164.933L190.413 164.907L190.46 164.927L190.447 164.953C190.44 164.96 190.44 164.973 190.433 164.98ZM190.48 164.867L190.433 164.847L190.46 164.787L190.507 164.807L190.48 164.867ZM190.533 164.747L190.487 164.727L190.513 164.667L190.56 164.687L190.533 164.747ZM190.587 164.627L190.54 164.607L190.567 164.547L190.613 164.567L190.587 164.627ZM190.633 164.507L190.587 164.487L190.613 164.427L190.66 164.447L190.633 164.507ZM190.687 164.387L190.64 164.367L190.667 164.307L190.713 164.327L190.687 164.387ZM190.74 164.267L190.693 164.247L190.72 164.187L190.767 164.207L190.74 164.267ZM190.787 164.147L190.74 164.127L190.767 164.067L190.813 164.087L190.787 164.147ZM190.84 164.027L190.793 164.007L190.82 163.947L190.867 163.967L190.84 164.027ZM190.893 163.907L190.847 163.887L190.873 163.827L190.92 163.847L190.893 163.907ZM190.94 163.787L190.893 163.767L190.92 163.707L190.967 163.727L190.94 163.787ZM190.993 163.667L190.947 163.647L190.973 163.587L191.02 163.607L190.993 163.667ZM191.047 163.553L191 163.533L191.027 163.473L191.073 163.493L191.047 163.553ZM191.093 163.433L191.047 163.413L191.073 163.353L191.12 163.373L191.093 163.433ZM191.147 163.313L191.1 163.293L191.127 163.233L191.173 163.253L191.147 163.313ZM191.2 163.193L191.153 163.173L191.18 163.113L191.227 163.133L191.2 163.193ZM191.253 163.073L191.207 163.053L191.233 162.993L191.28 163.013L191.253 163.073ZM191.3 162.953L191.253 162.933L191.28 162.873L191.327 162.893L191.3 162.953ZM191.353 162.833L191.307 162.813L191.333 162.753L191.38 162.773L191.353 162.833ZM191.407 162.713L191.36 162.693L191.387 162.633L191.433 162.653L191.407 162.713ZM191.453 162.593L191.407 162.573L191.433 162.513L191.48 162.533L191.453 162.593ZM191.507 162.473L191.46 162.453L191.487 162.393L191.533 162.413L191.507 162.473ZM191.56 162.353L191.513 162.333L191.54 162.273L191.587 162.293L191.56 162.353ZM191.607 162.233L191.56 162.213L191.587 162.153L191.633 162.173L191.607 162.233ZM191.66 162.12L191.613 162.1L191.64 162.04L191.687 162.06L191.66 162.12ZM191.713 162L191.667 161.98L191.693 161.92L191.74 161.94L191.713 162Z" fill="#58595B"/>
<path d="M191.073 164.88C190.947 164.933 190.793 164.873 190.74 164.747C190.687 164.62 190.747 164.467 190.873 164.413C191 164.36 191.153 164.42 191.207 164.547C191.26 164.673 191.2 164.82 191.073 164.88ZM190.9 164.487C190.813 164.527 190.773 164.627 190.807 164.713C190.847 164.8 190.947 164.84 191.033 164.807C191.12 164.767 191.16 164.667 191.127 164.58C191.093 164.487 190.993 164.447 190.9 164.487ZM191.613 163.72C191.487 163.773 191.333 163.713 191.28 163.587C191.227 163.46 191.287 163.307 191.413 163.253C191.54 163.2 191.693 163.26 191.747 163.387C191.8 163.52 191.74 163.667 191.613 163.72ZM191.447 163.333C191.36 163.373 191.32 163.473 191.353 163.56C191.393 163.647 191.493 163.687 191.58 163.653C191.667 163.613 191.707 163.513 191.673 163.427C191.633 163.333 191.533 163.293 191.447 163.333Z" fill="#E6E7E8"/>
<path d="M190.987 164.607C191.013 164.627 191.02 164.66 191 164.687C190.993 164.693 190.987 164.7 190.98 164.707C190.96 164.713 190.94 164.713 190.927 164.7C190.9 164.68 190.353 164.293 190.18 163.893C190.173 163.88 190.167 163.867 190.167 163.853C190.153 163.807 190.14 163.767 190.133 163.727C190.127 163.68 190.127 163.633 190.14 163.587C190.18 163.4 190.36 163.267 190.673 163.193C190.647 163.24 190.613 163.287 190.58 163.333C190.387 163.4 190.273 163.493 190.247 163.613C190.247 163.627 190.24 163.633 190.24 163.647C190.233 163.687 190.24 163.727 190.253 163.773C190.253 163.78 190.26 163.787 190.26 163.8C190.353 164.1 190.793 164.473 190.987 164.607Z" fill="#231F20"/>
<path d="M191.5 163.467C191.5 163.5 191.473 163.52 191.447 163.52C191.193 163.513 190.607 163.547 190.3 163.733C190.28 163.747 190.267 163.753 190.247 163.767C190.213 163.793 190.18 163.82 190.16 163.853C190.153 163.867 190.14 163.88 190.133 163.9C190.12 163.92 190.113 163.947 190.113 163.973C190.08 164.02 190.04 164.06 190.007 164.107C189.987 164.02 190 163.933 190.033 163.86C190.053 163.813 190.087 163.767 190.127 163.733C190.16 163.7 190.193 163.673 190.233 163.647C190.293 163.613 190.353 163.58 190.427 163.553C190.84 163.4 191.413 163.413 191.447 163.413C191.48 163.407 191.5 163.433 191.5 163.467Z" fill="#231F20"/>
<path d="M192.12 162.533C191.987 162.573 191.847 162.5 191.807 162.367C191.767 162.233 191.84 162.093 191.973 162.053C192.107 162.013 192.247 162.087 192.287 162.22C192.327 162.353 192.253 162.493 192.12 162.533ZM191.993 162.127C191.9 162.153 191.847 162.253 191.873 162.34C191.9 162.433 192 162.487 192.087 162.46C192.18 162.433 192.233 162.333 192.207 162.247C192.187 162.153 192.087 162.1 191.993 162.127Z" fill="#E6E7E8"/>
<path d="M192.1 162.307C192.093 162.333 192.06 162.353 192.033 162.34C191.867 162.287 191.473 162.207 191.2 162.26C191.107 162.28 191.033 162.313 190.98 162.373C190.907 162.453 190.893 162.58 190.94 162.747C190.913 162.787 190.893 162.833 190.867 162.873C190.78 162.62 190.787 162.427 190.9 162.3C190.987 162.207 191.113 162.16 191.26 162.14C191.613 162.1 192.04 162.227 192.067 162.233C192.093 162.247 192.107 162.28 192.1 162.307Z" fill="#231F20"/>
<path d="M166.617 164.952L170.994 165.12L171.251 158.384L166.874 158.217L166.617 164.952Z" fill="#F7C19B"/>
<path d="M171.02 165.98L171.733 166.807L171.927 167.08C172.04 167.24 172.107 167.427 172.113 167.62L172.147 168.373C172.153 168.56 172.013 168.72 171.827 168.727L170.993 168.767L170.98 168.553L170.527 168.573L170.54 168.787L169.54 168.86L169.533 168.687L169.06 168.707L169.067 168.893L167.947 168.94L167.333 168.233C166.453 168.54 165.66 168.893 164.993 169.32C164.96 169.347 163.827 169.407 163.82 169.373L163.813 169.207L163.373 169.227L163.38 169.393C163.013 169.44 162.653 169.453 162.3 169.447L162.293 169.267L161.86 169.287L161.867 169.433C161.487 169.453 161.147 169.427 160.86 169.36L160.853 169.22L160.42 169.187L160.427 169.313C160.167 169.293 159.933 169.233 159.707 169.153L159.72 169.013L159.327 168.873L159.253 169.013C158.827 168.867 158.433 168.7 158.093 168.527C158.093 168.527 157.993 167.953 158.347 167.907L162.893 167.187L168.72 166.1L171.02 165.98Z" fill="#333333"/>
<path d="M171.853 165.527C171.867 165.807 171.853 166.087 171.807 166.367L171.733 166.8C169.973 166.853 168.34 167.067 166.9 167.5C166.6 167.593 166.307 167.693 166.027 167.807C163.6 168.78 161.033 168.767 158.347 167.893L158.327 167.48C158.313 167.173 158.513 166.9 158.807 166.827L160.747 166.333C161.093 166.247 161.44 166.167 161.787 166.087C162.76 165.86 163.647 165.427 164.467 164.813C164.513 164.78 164.553 164.747 164.6 164.713C164.627 164.693 164.653 164.673 164.68 164.653C164.753 165.08 165.193 165.587 165.213 165.613C165.227 165.627 165.247 165.633 165.267 165.633C165.273 165.633 165.287 165.627 165.293 165.62C165.313 165.6 165.32 165.567 165.3 165.54C165.147 165.36 164.807 164.9 164.78 164.573C164.8 164.56 164.82 164.54 164.833 164.527C165.173 164.413 165.753 164.52 166 164.587C166.027 164.593 166.06 164.58 166.067 164.547C166.073 164.52 166.06 164.487 166.027 164.48C165.993 164.473 165.44 164.327 165.007 164.38C165.073 164.32 165.14 164.267 165.2 164.2C165.24 164.16 165.28 164.127 165.32 164.087C165.407 164.007 165.493 163.92 165.58 163.827C165.613 163.793 165.647 163.753 165.68 163.72C165.807 163.587 165.927 163.453 166.047 163.307C166.327 163.313 166.687 163.493 166.84 163.58C166.867 163.593 166.9 163.587 166.913 163.56C166.927 163.533 166.92 163.5 166.893 163.487C166.873 163.473 166.487 163.247 166.133 163.207C166.18 163.147 166.227 163.093 166.273 163.033C166.353 162.933 166.467 162.873 166.587 162.867L171.133 162.48C171.3 162.467 171.44 162.593 171.447 162.76L171.453 163.3C171.46 163.7 171.527 164.093 171.653 164.473C171.773 164.82 171.833 165.167 171.853 165.527Z" fill="#58595B"/>
<path d="M165.28 165.62C165.273 165.627 165.26 165.633 165.253 165.633C165.233 165.633 165.213 165.627 165.2 165.613C165.173 165.587 164.74 165.08 164.667 164.653C164.7 164.627 164.733 164.6 164.767 164.573C164.787 164.9 165.127 165.36 165.287 165.54C165.307 165.567 165.307 165.6 165.28 165.62ZM166.06 164.553C166.053 164.58 166.02 164.6 165.993 164.593C165.753 164.527 165.167 164.42 164.827 164.533C164.887 164.487 164.94 164.433 165 164.387C165.44 164.333 165.987 164.48 166.02 164.487C166.047 164.493 166.067 164.527 166.06 164.553Z" fill="#231F20"/>
<path d="M166.907 163.573C166.893 163.6 166.86 163.607 166.833 163.593C166.68 163.507 166.32 163.327 166.04 163.32C166.067 163.287 166.1 163.253 166.127 163.22C166.48 163.26 166.867 163.487 166.887 163.5C166.92 163.513 166.927 163.547 166.907 163.573Z" fill="#303030"/>
<path d="M171.853 165.527C171.867 165.807 171.853 166.087 171.807 166.367L171.733 166.8C169.973 166.853 168.34 167.067 166.9 167.5L164.573 166.053C164.44 165.967 164.407 165.787 164.5 165.66L166.6 162.86L171.147 162.473C171.313 162.46 171.453 162.587 171.46 162.753L171.467 163.293C171.473 163.693 171.54 164.087 171.667 164.467C171.773 164.82 171.833 165.167 171.853 165.527Z" fill="#414042"/>
<path d="M166.687 163.074L166.647 163.041L166.674 163.007H166.714L166.721 163.054H166.701L166.687 163.074Z" fill="#58595B"/>
<path d="M171.6 166.56L171.553 166.553L171.567 166.487L171.613 166.493L171.6 166.56ZM171.62 166.433L171.573 166.427L171.587 166.36L171.633 166.367L171.62 166.433ZM171.64 166.3L171.593 166.293C171.6 166.273 171.6 166.253 171.6 166.227L171.647 166.233C171.647 166.26 171.647 166.28 171.64 166.3ZM171.66 166.173L171.613 166.167C171.613 166.147 171.62 166.12 171.62 166.1L171.667 166.107C171.667 166.127 171.66 166.147 171.66 166.173ZM171.673 166.04L171.627 166.033C171.627 166.013 171.633 165.987 171.633 165.967L171.68 165.973C171.673 165.993 171.673 166.013 171.673 166.04ZM171.68 165.907H171.633C171.633 165.887 171.633 165.86 171.633 165.84H171.68C171.687 165.86 171.68 165.887 171.68 165.907ZM171.687 165.773H171.64C171.64 165.753 171.64 165.727 171.64 165.707H171.687C171.687 165.727 171.687 165.753 171.687 165.773ZM171.687 165.64H171.64C171.64 165.62 171.64 165.593 171.64 165.573H171.687C171.687 165.593 171.687 165.62 171.687 165.64ZM171.633 165.513C171.633 165.493 171.633 165.467 171.627 165.447L171.673 165.44C171.673 165.46 171.673 165.487 171.68 165.507L171.633 165.513ZM171.627 165.38C171.627 165.36 171.62 165.333 171.62 165.313L171.667 165.307C171.667 165.327 171.673 165.353 171.673 165.373L171.627 165.38ZM171.613 165.247C171.613 165.227 171.607 165.207 171.607 165.18L171.653 165.173C171.653 165.193 171.66 165.22 171.66 165.24L171.613 165.247ZM171.593 165.12C171.593 165.1 171.587 165.08 171.58 165.053L171.627 165.047C171.633 165.067 171.633 165.093 171.64 165.113L171.593 165.12ZM171.567 164.993C171.56 164.973 171.56 164.953 171.553 164.927L171.6 164.913C171.607 164.933 171.607 164.953 171.613 164.98L171.567 164.993ZM171.54 164.86C171.533 164.84 171.527 164.82 171.527 164.793L171.573 164.78C171.58 164.8 171.587 164.82 171.587 164.847L171.54 164.86ZM171.513 164.733C171.507 164.713 171.5 164.693 171.493 164.673L171.54 164.66C171.547 164.68 171.553 164.7 171.56 164.727L171.513 164.733ZM171.473 164.607C171.467 164.587 171.46 164.567 171.453 164.547L171.5 164.533C171.507 164.553 171.513 164.573 171.52 164.593L171.473 164.607ZM171.433 164.487C171.427 164.467 171.42 164.447 171.413 164.42L171.46 164.407C171.467 164.427 171.473 164.447 171.48 164.467L171.433 164.487ZM171.4 164.353C171.393 164.333 171.387 164.313 171.38 164.287L171.427 164.273C171.433 164.293 171.44 164.313 171.447 164.333L171.4 164.353ZM171.367 164.227C171.36 164.207 171.353 164.187 171.353 164.16L171.4 164.147C171.407 164.167 171.407 164.187 171.413 164.213L171.367 164.227ZM171.333 164.1C171.327 164.08 171.327 164.053 171.32 164.033L171.367 164.027C171.373 164.047 171.373 164.067 171.38 164.093L171.333 164.1ZM171.313 163.967C171.307 163.947 171.307 163.92 171.3 163.9L171.347 163.893C171.353 163.913 171.353 163.933 171.36 163.96L171.313 163.967ZM171.287 163.84C171.287 163.82 171.28 163.793 171.28 163.773L171.327 163.767C171.327 163.787 171.333 163.813 171.333 163.833L171.287 163.84ZM171.273 163.707C171.273 163.687 171.267 163.66 171.267 163.64L171.313 163.633C171.313 163.653 171.32 163.68 171.32 163.7L171.273 163.707ZM171.26 163.573C171.26 163.553 171.26 163.527 171.253 163.507H171.3C171.3 163.527 171.3 163.553 171.307 163.573H171.26ZM171.3 163.44H171.253C171.253 163.42 171.253 163.393 171.253 163.373H171.3C171.3 163.393 171.3 163.42 171.3 163.44ZM171.3 163.307H171.253V163.24H171.3V163.307ZM171.293 163.173H171.247V163.107H171.293V163.173ZM171.293 163.047H171.247V162.98H171.293V163.047ZM171.293 162.913H171.247V162.847H171.293V162.913ZM166.787 163.047L166.78 163L166.847 162.993L166.853 163.04L166.787 163.047ZM166.92 163.033L166.913 162.987L166.98 162.98L166.987 163.027L166.92 163.033ZM167.047 163.027L167.04 162.98L167.107 162.973L167.113 163.02L167.047 163.027ZM167.18 163.013L167.173 162.967L167.24 162.96L167.247 163.007L167.18 163.013ZM167.313 163L167.307 162.953L167.373 162.947L167.38 162.993L167.313 163ZM167.447 162.993L167.44 162.947L167.507 162.94L167.513 162.987L167.447 162.993ZM167.573 162.98L167.567 162.933L167.633 162.927L167.64 162.973L167.573 162.98ZM167.707 162.967L167.7 162.92L167.767 162.913L167.773 162.96L167.707 162.967ZM167.84 162.96L167.833 162.913L167.9 162.907L167.907 162.953L167.84 162.96ZM167.973 162.947L167.967 162.9L168.033 162.893L168.04 162.94L167.973 162.947ZM171.24 162.787C171.233 162.767 171.227 162.753 171.22 162.733L171.26 162.707C171.273 162.727 171.287 162.753 171.287 162.773L171.24 162.787ZM168.1 162.933L168.093 162.887L168.16 162.88L168.167 162.927L168.1 162.933ZM168.233 162.927L168.227 162.88L168.293 162.873L168.3 162.92L168.233 162.927ZM168.373 162.913L168.36 162.867L168.427 162.86L168.433 162.907L168.373 162.913ZM168.5 162.9L168.493 162.853L168.56 162.847L168.567 162.893L168.5 162.9ZM168.633 162.887L168.627 162.84L168.693 162.833L168.7 162.88L168.633 162.887ZM168.76 162.88L168.753 162.833L168.82 162.827L168.827 162.873L168.76 162.88ZM168.893 162.867L168.887 162.82L168.953 162.813L168.96 162.86L168.893 162.867ZM169.02 162.853L169.013 162.807L169.08 162.8L169.087 162.847L169.02 162.853ZM169.153 162.847L169.147 162.8L169.213 162.793L169.22 162.84L169.153 162.847ZM169.287 162.833L169.28 162.787L169.347 162.78L169.353 162.827L169.287 162.833ZM169.42 162.82L169.413 162.773L169.48 162.767L169.487 162.813L169.42 162.82ZM169.547 162.813L169.54 162.767L169.607 162.76L169.613 162.807L169.547 162.813ZM169.68 162.8L169.673 162.753L169.74 162.747L169.747 162.793L169.68 162.8ZM169.813 162.787L169.807 162.74L169.873 162.733L169.88 162.78L169.813 162.787ZM169.947 162.78L169.94 162.733L170.007 162.727L170.013 162.773L169.947 162.78ZM170.073 162.767L170.067 162.72L170.133 162.713L170.14 162.76L170.073 162.767ZM170.207 162.753L170.2 162.707L170.267 162.7L170.273 162.747L170.207 162.753ZM170.34 162.747L170.333 162.7L170.4 162.693L170.407 162.74L170.34 162.747ZM170.473 162.733L170.467 162.687L170.533 162.68L170.54 162.727L170.473 162.733ZM171.18 162.7C171.167 162.693 171.147 162.687 171.127 162.68L171.133 162.633C171.16 162.633 171.187 162.647 171.207 162.66L171.18 162.7ZM170.6 162.72L170.593 162.673L170.66 162.667L170.667 162.713L170.6 162.72ZM170.733 162.713L170.727 162.667L170.793 162.66L170.8 162.707L170.733 162.713ZM170.867 162.7L170.86 162.653L170.927 162.647L170.933 162.693L170.867 162.7ZM171 162.687L170.993 162.64L171.06 162.633L171.067 162.68L171 162.687Z" fill="#58595B"/>
<path d="M171.581 166.674H171.527V166.627H171.54V166.613L171.588 166.62L171.581 166.674Z" fill="#58595B"/>
<path d="M167.033 167.32L167.02 167.273L167.08 167.253L167.093 167.3L167.033 167.32ZM167.16 167.287L167.147 167.24L167.207 167.22L167.22 167.267L167.16 167.287ZM167.287 167.247L167.273 167.2L167.333 167.18L167.347 167.227L167.287 167.247ZM167.413 167.22L167.4 167.173L167.46 167.16L167.473 167.207L167.413 167.22ZM167.54 167.187L167.527 167.14L167.587 167.127L167.6 167.173L167.54 167.187ZM167.667 167.153L167.653 167.107L167.72 167.093L167.733 167.14L167.667 167.153ZM167.793 167.127L167.78 167.08L167.847 167.067L167.86 167.113L167.793 167.127ZM167.92 167.093L167.907 167.047L167.973 167.033L167.987 167.08L167.92 167.093ZM168.047 167.067L168.033 167.02L168.1 167.007L168.113 167.053L168.047 167.067ZM168.173 167.04L168.167 166.993L168.233 166.98L168.24 167.027L168.173 167.04ZM168.3 167.02L168.293 166.973L168.36 166.96L168.367 167.007L168.3 167.02ZM168.427 166.993L168.42 166.947L168.487 166.933L168.493 166.98L168.427 166.993ZM168.553 166.967L168.547 166.92L168.613 166.907L168.62 166.953L168.553 166.967ZM168.68 166.947L168.673 166.9L168.74 166.887L168.747 166.933L168.68 166.947ZM168.813 166.927L168.807 166.88L168.873 166.867L168.88 166.913L168.813 166.927ZM168.94 166.907L168.933 166.86L169 166.853L169.007 166.9L168.94 166.907ZM169.067 166.887L169.06 166.84L169.127 166.833L169.133 166.88L169.067 166.887ZM169.193 166.867L169.187 166.82L169.253 166.813L169.26 166.86L169.193 166.867ZM169.327 166.853L169.32 166.807L169.387 166.8L169.393 166.847L169.327 166.853ZM169.453 166.833L169.447 166.787L169.513 166.78L169.52 166.827L169.453 166.833ZM169.58 166.82L169.573 166.773L169.64 166.767L169.647 166.813L169.58 166.82ZM169.713 166.807L169.707 166.76L169.773 166.753L169.78 166.8L169.713 166.807ZM169.84 166.787L169.833 166.74L169.9 166.733L169.907 166.78L169.84 166.787ZM169.973 166.773L169.967 166.727L170.033 166.72L170.04 166.767L169.973 166.773ZM170.1 166.767L170.093 166.72L170.16 166.713L170.167 166.76L170.1 166.767ZM170.227 166.753L170.22 166.707L170.287 166.7L170.293 166.747L170.227 166.753ZM170.36 166.74L170.353 166.693L170.42 166.687L170.427 166.733L170.36 166.74ZM170.487 166.733L170.48 166.687L170.547 166.68L170.553 166.727L170.487 166.733ZM170.62 166.72L170.613 166.673L170.68 166.667V166.713L170.62 166.72ZM170.747 166.713V166.667L170.813 166.66V166.707L170.747 166.713ZM170.88 166.707V166.66L170.947 166.653V166.7L170.88 166.707ZM171.46 166.673H171.393V166.627H171.46V166.673ZM171.007 166.7V166.653L171.073 166.647V166.693L171.007 166.7ZM171.333 166.68H171.267V166.633H171.333V166.68ZM171.133 166.693V166.647H171.2V166.693H171.133Z" fill="#58595B"/>
<path d="M166.934 167.354L166.893 167.327L166.92 167.287L166.941 167.3L166.961 167.293L166.975 167.341L166.934 167.354Z" fill="#58595B"/>
<path d="M166.84 167.293L166.787 167.26L166.813 167.22L166.867 167.253L166.84 167.293ZM166.727 167.227L166.673 167.193L166.7 167.153L166.753 167.187L166.727 167.227ZM166.62 167.153L166.567 167.12L166.593 167.08L166.647 167.113L166.62 167.153ZM166.507 167.087L166.453 167.053L166.48 167.013L166.533 167.047L166.507 167.087ZM166.4 167.02L166.347 166.987L166.373 166.947L166.427 166.98L166.4 167.02ZM166.287 166.953L166.233 166.92L166.26 166.88L166.313 166.913L166.287 166.953ZM166.18 166.88L166.127 166.847L166.153 166.807L166.207 166.84L166.18 166.88ZM166.067 166.813L166.013 166.78L166.04 166.74L166.093 166.773L166.067 166.813ZM165.953 166.747L165.9 166.713L165.927 166.673L165.98 166.707L165.953 166.747ZM165.847 166.673L165.793 166.64L165.82 166.6L165.873 166.633L165.847 166.673ZM165.733 166.607L165.68 166.573L165.707 166.533L165.76 166.567L165.733 166.607ZM165.627 166.54L165.573 166.507L165.6 166.467L165.653 166.5L165.627 166.54ZM165.513 166.467L165.46 166.433L165.487 166.393L165.54 166.427L165.513 166.467ZM165.407 166.4L165.353 166.367L165.38 166.327L165.433 166.36L165.407 166.4ZM165.293 166.333L165.24 166.3L165.267 166.26L165.32 166.293L165.293 166.333ZM165.187 166.267L165.133 166.233L165.16 166.193L165.213 166.227L165.187 166.267ZM165.073 166.193L165.02 166.16L165.047 166.12L165.1 166.153L165.073 166.193ZM164.96 166.127L164.907 166.093L164.933 166.053L164.987 166.087L164.96 166.127ZM164.853 166.06L164.8 166.027L164.827 165.987L164.88 166.02L164.853 166.06ZM164.74 165.987L164.687 165.953L164.713 165.913L164.767 165.947L164.74 165.987ZM164.633 165.9C164.62 165.88 164.613 165.867 164.613 165.847C164.613 165.84 164.613 165.833 164.613 165.833L164.66 165.827C164.66 165.833 164.66 165.833 164.66 165.84C164.66 165.853 164.667 165.867 164.673 165.88L164.633 165.9ZM164.667 165.773L164.62 165.753C164.627 165.74 164.633 165.727 164.64 165.72L164.66 165.693L164.7 165.72L164.68 165.747C164.673 165.76 164.667 165.767 164.667 165.773ZM164.74 165.673L164.7 165.647L164.74 165.593L164.78 165.62L164.74 165.673ZM164.813 165.567L164.773 165.54L164.813 165.487L164.853 165.513L164.813 165.567ZM164.893 165.467L164.853 165.44L164.893 165.387L164.933 165.413L164.893 165.467ZM164.973 165.36L164.933 165.333L164.973 165.28L165.013 165.307L164.973 165.36ZM165.047 165.26L165.007 165.233L165.047 165.18L165.087 165.207L165.047 165.26ZM165.127 165.153L165.087 165.127L165.127 165.073L165.167 165.1L165.127 165.153ZM165.207 165.047L165.167 165.02L165.207 164.967L165.247 164.993L165.207 165.047ZM165.28 164.947L165.24 164.92L165.28 164.867L165.32 164.893L165.28 164.947ZM165.36 164.84L165.32 164.813L165.36 164.76L165.4 164.787L165.36 164.84ZM165.44 164.74L165.4 164.713L165.44 164.66L165.48 164.687L165.44 164.74ZM165.513 164.633L165.473 164.607L165.513 164.553L165.553 164.58L165.513 164.633ZM165.593 164.527L165.553 164.5L165.593 164.447L165.633 164.473L165.593 164.527ZM165.673 164.427L165.633 164.4L165.673 164.347L165.713 164.373L165.673 164.427ZM165.753 164.32L165.713 164.293L165.753 164.24L165.793 164.267L165.753 164.32ZM165.827 164.22L165.787 164.193L165.827 164.14L165.867 164.167L165.827 164.22ZM165.907 164.113L165.867 164.087L165.907 164.033L165.947 164.06L165.907 164.113ZM165.987 164.007L165.947 163.98L165.987 163.927L166.027 163.953L165.987 164.007ZM166.06 163.907L166.02 163.88L166.06 163.827L166.1 163.853L166.06 163.907ZM166.14 163.8L166.1 163.773L166.14 163.72L166.18 163.747L166.14 163.8ZM166.22 163.693L166.18 163.667L166.22 163.613L166.26 163.64L166.22 163.693ZM166.293 163.593L166.253 163.567L166.293 163.513L166.333 163.54L166.293 163.593ZM166.373 163.487L166.333 163.46L166.373 163.407L166.413 163.433L166.373 163.487ZM166.453 163.387L166.413 163.36L166.453 163.307L166.493 163.333L166.453 163.387ZM166.533 163.28L166.493 163.253L166.533 163.2L166.573 163.227L166.533 163.28ZM166.607 163.173L166.567 163.147L166.607 163.093L166.647 163.12L166.607 163.173Z" fill="#58595B"/>
<path d="M165.307 165.827C165.167 165.853 165.04 165.76 165.013 165.62C164.987 165.48 165.08 165.353 165.22 165.327C165.36 165.3 165.487 165.393 165.513 165.533C165.54 165.673 165.447 165.8 165.307 165.827ZM165.233 165.407C165.14 165.42 165.073 165.513 165.093 165.607C165.107 165.7 165.2 165.767 165.293 165.747C165.387 165.733 165.453 165.64 165.433 165.547C165.42 165.453 165.327 165.387 165.233 165.407ZM166.107 164.827C165.967 164.853 165.84 164.76 165.813 164.62C165.787 164.48 165.88 164.353 166.02 164.327C166.16 164.3 166.287 164.393 166.313 164.533C166.34 164.673 166.247 164.807 166.107 164.827ZM166.033 164.407C165.94 164.42 165.873 164.513 165.893 164.607C165.907 164.7 166 164.767 166.093 164.747C166.187 164.733 166.253 164.64 166.233 164.547C166.22 164.46 166.127 164.393 166.033 164.407Z" fill="#E6E7E8"/>
<path d="M165.287 165.547C165.307 165.567 165.307 165.607 165.28 165.627C165.273 165.633 165.26 165.64 165.253 165.64C165.233 165.64 165.213 165.633 165.2 165.62C165.173 165.593 164.74 165.087 164.667 164.66C164.667 164.647 164.66 164.633 164.66 164.62C164.653 164.573 164.653 164.527 164.66 164.487C164.667 164.44 164.68 164.393 164.7 164.353C164.787 164.187 164.993 164.1 165.313 164.093C165.273 164.133 165.233 164.173 165.193 164.207C164.987 164.227 164.853 164.287 164.8 164.4C164.793 164.407 164.793 164.42 164.787 164.427C164.773 164.467 164.767 164.507 164.767 164.553C164.767 164.56 164.767 164.567 164.767 164.58C164.793 164.9 165.133 165.367 165.287 165.547Z" fill="#231F20"/>
<path d="M166.06 164.553C166.053 164.58 166.02 164.6 165.993 164.593C165.753 164.527 165.167 164.42 164.827 164.533C164.807 164.54 164.787 164.547 164.767 164.553C164.727 164.573 164.693 164.593 164.66 164.62C164.647 164.633 164.633 164.647 164.627 164.653C164.613 164.673 164.6 164.693 164.587 164.72C164.54 164.753 164.5 164.787 164.453 164.82C164.46 164.727 164.487 164.653 164.54 164.587C164.573 164.547 164.613 164.513 164.66 164.487C164.7 164.467 164.74 164.447 164.787 164.427C164.853 164.407 164.92 164.393 164.993 164.38C165.433 164.327 165.98 164.473 166.013 164.48C166.047 164.493 166.067 164.527 166.06 164.553Z" fill="#231F20"/>
<path d="M166.873 163.793C166.733 163.8 166.613 163.693 166.607 163.553C166.6 163.413 166.707 163.293 166.847 163.287C166.987 163.28 167.107 163.387 167.113 163.527C167.12 163.667 167.013 163.787 166.873 163.793ZM166.853 163.367C166.76 163.373 166.687 163.453 166.687 163.547C166.693 163.64 166.773 163.713 166.867 163.713C166.96 163.707 167.033 163.627 167.033 163.533C167.033 163.44 166.947 163.367 166.853 163.367Z" fill="#E6E7E8"/>
<path d="M166.907 163.573C166.893 163.6 166.86 163.607 166.833 163.593C166.68 163.507 166.32 163.327 166.04 163.32C165.947 163.32 165.867 163.333 165.8 163.373C165.707 163.433 165.667 163.553 165.673 163.727C165.64 163.76 165.607 163.8 165.573 163.833C165.547 163.567 165.607 163.38 165.747 163.28C165.853 163.207 165.987 163.193 166.133 163.213C166.487 163.253 166.873 163.48 166.893 163.493C166.92 163.513 166.927 163.547 166.907 163.573Z" fill="#231F20"/>
<path d="M186.04 109.507L187.02 137.08L195.867 158.68L190.327 160.42L180.927 143.687C179.28 140.807 178.2 137.64 177.747 134.353L175.86 120.82L170.9 137.38L172.167 161.12L165.767 161.687L162.867 140.52C162.373 137.327 162.347 134.073 162.787 130.867L166.173 106.24L177.013 104.44L186.04 109.507Z" fill="#333333"/>
<path d="M180.287 77.86L179.24 75.86C177.813 77.8467 176.14 78.1866 174.187 76.6066L168.887 84.9533L170.667 88.7666L171.007 102.447L172.68 108.92C173.84 110.607 175.693 110.827 177.94 110.213L180.447 108.473L183.873 94.8066L183.88 89.0533C183.88 89.0533 182.727 85.02 182.54 84.82C182.353 84.62 180.287 77.86 180.287 77.86Z" fill="#F1F2F2"/>
<path d="M170.693 106.333L169.8 101.36L185.467 90.76L186.24 113.28C186.24 113.527 186.033 113.72 185.787 113.713C184.273 113.66 179.373 113.24 177.927 110.213C177.793 109.933 177.94 109.54 178 109.253C178.1 108.78 178.173 108.3 178.233 107.82C178.987 102.107 177.58 96.4133 177.707 90.6933C177.8 86.12 178.64 81.5467 179.107 77C179.113 76.94 179.233 75.8466 179.233 75.8466C186.453 78.78 187.16 81.3133 189.88 90.2466C190.04 90.7666 190.073 91.32 190.133 91.9133C190.393 94.6066 189.36 97.7133 185.753 99.08L170.693 106.333Z" fill="#f36f32"/>
<path d="M147.713 89.28C147.713 89.28 160.02 90.5666 160.713 89.5C162.333 87.0133 164.98 82.4 167.273 80.4933C167.98 79.9 168.727 79.3466 169.5 78.84C170.2 78.3866 170.927 77.9733 171.673 77.6133C172.073 77.42 172.473 77.24 172.88 77.08C173.027 77.02 174.08 76.68 174.18 76.6133C173.94 77.7933 173.7 78.9733 173.453 80.1533C173 82.3733 172.807 84.52 173.007 86.7933C173.173 88.6133 173.447 90.4267 173.46 92.2533C173.473 94.3933 172.993 96.4467 172.727 98.5533C172.24 102.48 172.607 106.48 172.7 110.427C172.713 110.987 172.22 111.433 171.667 111.367C169.447 111.087 167.573 110.207 166.053 108.713C165.893 108.553 165.807 108.327 165.833 108.1C166.133 105.487 166.473 102.887 166.86 100.287C167.273 97.4467 168.1 91.7733 167.613 91.66C167.18 91.56 164.46 95.0133 162.207 95.0133C161.507 95.6133 146.24 94.1267 146.24 94.1267L147.713 89.28Z" fill="#f36f32"/>
<path d="M174.273 75.4867C174.273 75.4867 177.033 75.4 178.24 73.7133C178.24 73.7133 177.12 75.7467 174.213 76.2133L174.273 75.4867Z" fill="#EAB896"/>
<path d="M187.687 107.013C186.78 109.8 183.72 111.26 180.987 110.207L126.327 89.26L127.647 85.2067L184.153 100.48C186.987 101.247 188.593 104.227 187.687 107.013Z" fill="#414042"/>
<path d="M108.76 43.7333C90.8534 37.9 71.5334 47.72 65.7001 65.6333C59.8667 83.54 69.6867 102.86 87.5934 108.687C104.587 114.22 122.84 105.667 129.647 89.4867C130.013 88.6133 130.353 87.7133 130.653 86.7933C130.953 85.8733 131.213 84.9467 131.427 84.02C135.46 66.9333 125.753 49.2667 108.76 43.7333ZM126.5 85.44C121.413 101.053 104.567 109.62 88.9534 104.533C79.3401 101.4 72.4001 93.8067 69.6734 84.7933C68.0267 79.3667 67.9134 73.4267 69.6667 67.6267C69.7267 67.4133 69.8001 67.2 69.8667 66.9867C74.9601 51.3733 91.8001 42.8067 107.413 47.8933C123.027 52.98 131.593 69.82 126.5 85.44Z" fill="#414042"/>
<path d="M107.567 47.3933C91.68 42.2133 74.54 50.9333 69.36 66.82C64.1867 82.7067 72.9 99.8467 88.7867 105.02C103.86 109.933 120.06 102.34 126.1 87.9867C126.427 87.2067 126.727 86.4133 126.993 85.5933C127.26 84.7733 127.487 83.9533 127.68 83.1333C131.26 67.98 122.64 52.3067 107.567 47.3933ZM126.5 85.44C121.413 101.053 104.567 109.62 88.9533 104.533C79.34 101.4 72.4 93.8067 69.6733 84.7933C68.0266 79.3667 67.9133 73.4267 69.6667 67.6267C69.7267 67.4133 69.8 67.2 69.8667 66.9867C74.96 51.3733 91.8 42.8067 107.413 47.8933C123.027 52.98 131.593 69.82 126.5 85.44Z" fill="#333333"/>
<path opacity="0.3" d="M126.5 85.44C121.413 101.053 104.567 109.62 88.9534 104.533C73.34 99.4467 64.7733 82.6 69.86 66.9867C70.5733 64.8 71.5134 62.7533 72.6534 60.86C73.38 59.6533 74.18 58.5133 75.06 57.44C82.6134 48.1666 95.3734 43.9733 107.407 47.9C111.96 49.38 115.92 51.8667 119.107 55.0333C119.833 55.7533 120.52 56.5 121.16 57.2867C127.407 64.88 129.767 75.4133 126.5 85.44Z" fill="#BDBDBD"/>
<path d="M170.113 101.6L168.547 101.533C168.26 101.547 167.973 101.447 167.767 101.247L166.86 100.387C166.687 100.227 166.42 100.227 166.253 100.393C166.113 100.533 166.087 100.747 166.18 100.913L166.727 101.887C166.873 102.147 166.753 102.473 166.48 102.58L163.707 103.687C163.487 103.773 163.38 104.02 163.46 104.233C163.54 104.447 163.773 104.567 163.993 104.5L165.6 104.007L163.787 104.567C163.527 104.647 163.387 104.933 163.493 105.187C163.587 105.42 163.84 105.533 164.08 105.453L166.733 104.56L164.613 105.253C164.367 105.333 164.233 105.6 164.32 105.847C164.407 106.093 164.673 106.22 164.913 106.133L167.733 105.14L165.6 105.887C165.36 105.967 165.233 106.227 165.313 106.467C165.387 106.7 165.633 106.833 165.873 106.773C167.66 106.313 169.54 105.553 171.48 104.627L170.113 101.6Z" fill="#F7C19B"/>
<path d="M176.667 96.7133L169.467 101.207L171.46 105.567L185.753 99.0933L181.487 95.4L176.667 96.7133Z" fill="#f36f32"/>
<path opacity="0.4" d="M97.3534 60.4467C103.108 60.4467 107.773 58.1872 107.773 55.4C107.773 52.6128 103.108 50.3533 97.3534 50.3533C91.5985 50.3533 86.9333 52.6128 86.9333 55.4C86.9333 58.1872 91.5985 60.4467 97.3534 60.4467Z" fill="white"/>
<path d="M131.927 93.3867L130.06 92.7467C129.587 92.5867 129.34 92.0733 129.5 91.6L131.613 85.46C131.773 84.9867 132.287 84.74 132.76 84.9L134.627 85.54C135.1 85.7 135.347 86.2133 135.187 86.6867L133.073 92.8267C132.913 93.2933 132.4 93.5467 131.927 93.3867Z" fill="#333333"/>
<path d="M176.14 56.1867V56.2333C176.14 57.32 175.273 58.2133 174.18 58.24H174.133C173.047 58.24 172.153 57.3733 172.127 56.28C172.1 55.1733 172.973 54.2533 174.08 54.2267H174.133C175.22 54.2333 176.113 55.1 176.14 56.1867ZM181.14 41.34C181.133 41.38 181.127 41.4267 181.113 41.4667C181.1 41.54 181.08 41.62 181.053 41.6933C181.04 41.7533 181.02 41.8067 181 41.8667C180.893 42.22 180.747 42.5667 180.567 42.9067C180.567 42.9133 180.56 42.92 180.56 42.92C180.507 43.02 180.447 43.1267 180.373 43.24C180.067 43.74 179.607 44.3267 179 45C178.893 45.12 178.78 45.2467 178.66 45.3733C178.3 45.76 177.9 46.1733 177.447 46.6067C176.62 47.42 176.153 48.0933 175.913 48.5467C175.587 49.1533 175.7 50.6733 175.68 51.3733C175.667 51.9467 175.253 52.4133 174.74 52.4267L172.987 52.4733C172.453 52.4867 172.013 52.02 172.007 51.4267C172.007 51.34 172.007 51.2533 172.007 51.1667C172.007 49.96 171.907 48.0467 172.527 46.88C172.747 46.4667 172.993 45.9933 173.373 45.5C173.473 45.38 173.573 45.2533 173.673 45.1267C173.993 44.7467 174.373 44.3533 174.807 43.9333C175.04 43.7067 175.253 43.5 175.453 43.3133C175.64 43.1267 175.813 42.9533 175.96 42.8C176.3 42.46 176.547 42.1867 176.707 41.9867C176.773 41.9133 176.82 41.84 176.853 41.7867C176.873 41.7533 176.9 41.7133 176.92 41.68C177.08 41.4133 177.2 41.1267 177.26 40.8333C177.287 40.7133 177.313 40.5933 177.327 40.4733C177.34 40.3333 177.347 40.1933 177.347 40.0467C177.34 39.8067 177.313 39.5733 177.26 39.3533C177.233 39.2333 177.2 39.12 177.153 39.0067C176.993 38.5667 176.727 38.18 176.36 37.8267C176.167 37.6467 175.953 37.4933 175.727 37.3733C175.627 37.3133 175.52 37.2667 175.407 37.2267C175.313 37.1867 175.227 37.16 175.133 37.1267C175.013 37.0867 174.893 37.06 174.767 37.0333C174.473 36.98 174.16 36.9533 173.827 36.9667C173.48 36.9733 173.153 37.02 172.853 37.1C172.733 37.1333 172.613 37.1733 172.5 37.2133C172.367 37.2667 172.247 37.32 172.127 37.3867C172.02 37.44 171.92 37.5 171.82 37.5667C171.633 37.6933 171.453 37.84 171.287 38.0067C170.767 38.5267 170.38 39.2467 170.127 40.16C169.993 40.6533 169.567 40.9733 169.113 40.9267L167.213 40.7133C166.64 40.6533 166.247 40.0533 166.367 39.42C166.627 38.0133 167.273 36.7667 168.307 35.6867C168.613 35.3667 168.94 35.0867 169.293 34.84C169.387 34.7733 169.487 34.7067 169.58 34.6467C169.727 34.5533 169.887 34.4667 170.047 34.3867C170.153 34.3333 170.26 34.28 170.367 34.2333C171.307 33.8067 172.367 33.58 173.567 33.5467C174.913 33.5133 176.1 33.7067 177.133 34.1333C177.247 34.18 177.353 34.2267 177.46 34.28C177.54 34.32 177.62 34.36 177.7 34.4C177.807 34.4533 177.907 34.5133 178 34.5733C178.4 34.8133 178.767 35.0933 179.107 35.4133C180.04 36.2933 180.667 37.2733 180.993 38.3667C181.027 38.48 181.06 38.6 181.087 38.72C181.187 39.1467 181.24 39.6 181.253 40.06C181.267 40.5067 181.227 40.9267 181.14 41.34Z" fill="#eb1f1c"/>
<path d="M172.626 56.32C172.546 56.32 172.473 56.26 172.466 56.1733C172.386 55.4 172.88 55.04 173.153 54.96C173.24 54.9333 173.326 54.98 173.353 55.0667C173.38 55.1533 173.333 55.24 173.246 55.2667C173.22 55.2733 172.713 55.4467 172.786 56.14C172.793 56.2267 172.733 56.3067 172.64 56.32C172.633 56.32 172.633 56.32 172.626 56.32ZM168.606 37.04C168.566 37.04 168.52 37.0267 168.486 37.0067C168.373 36.94 168.333 36.7933 168.4 36.6733C168.453 36.5867 169.693 34.5 172.793 34.4C172.926 34.3933 173.04 34.5 173.046 34.6333C173.053 34.7667 172.946 34.88 172.813 34.8867C169.993 34.98 168.866 36.84 168.82 36.92C168.766 37 168.686 37.04 168.606 37.04Z" fill="#EEEEEE"/>
</svg>